<svg xmlns="http://www.w3.org/2000/svg" width="500" height="500" viewBox="0 0 500 500" version="1.1"><path d="M 171.745 96.831 C 159.629 103.106, 147 110.767, 147 111.842 C 147 112.704, 161.649 121.580, 165.361 122.966 C 166.934 123.554, 170.180 125.441, 172.574 127.161 C 178.656 131.528, 184.707 132.006, 192.759 128.753 C 200.546 125.608, 218.027 115.733, 220.348 113.168 C 222.078 111.257, 221.915 111.072, 213.811 105.738 C 201.874 97.883, 188.724 91, 185.650 91 C 184.195 91, 177.937 93.624, 171.745 96.831 M 294.972 95.573 C 284.309 100.672, 267.845 111.031, 268.279 112.367 C 268.751 113.822, 277.244 118.920, 293.086 127.257 L 305.673 133.881 321.086 125.326 C 337.729 116.089, 342 113.361, 342 111.969 C 342 109.043, 311.178 92, 305.885 92 C 303.992 92, 299.081 93.608, 294.972 95.573 M 295.500 164.594 C 287.298 168.794, 274.568 176.283, 271 179.007 C 268.986 180.545, 268.709 181.255, 269.577 182.657 C 270.955 184.885, 294.994 198.479, 301.267 200.578 C 306.001 202.161, 306.081 202.150, 312.565 199.116 C 319.931 195.669, 337.588 185.525, 340.250 183.211 C 341.212 182.375, 342 181.350, 342 180.935 C 342 178.585, 309.569 160.997, 305.252 161.005 C 303.738 161.008, 299.350 162.623, 295.500 164.594 M 178.989 163.385 C 169.292 167.100, 149 178.956, 149 180.907 C 149 184.051, 179.073 201, 184.650 201 C 189.494 201, 217.350 186.898, 220.860 182.669 C 222.667 180.491, 216.865 176.139, 202.500 168.901 C 189.649 162.425, 184.591 161.238, 178.989 163.385 M 407.500 182.585 C 379.473 197.894, 298.501 244.493, 285.788 252.628 C 274.231 260.025, 270.094 263.870, 266.912 270.173 C 261.967 279.970, 261.659 285.241, 261.576 361.500 C 261.505 427.142, 261.614 431.796, 263.337 436.261 C 265.558 442.017, 267.809 443.406, 273.526 442.548 C 278.833 441.753, 298.024 432.047, 325 416.516 C 336.275 410.025, 351.800 401.115, 359.500 396.717 C 388.826 379.967, 409.636 367.031, 413.201 363.336 C 421.281 354.960, 423.435 344.897, 423.473 315.338 C 423.488 303.698, 423.150 293.823, 422.722 293.393 C 421.202 291.865, 393.360 306.909, 387.528 312.409 C 384.537 315.230, 383.999 316.403, 383.994 320.118 C 383.978 332.745, 377.819 339.571, 353 354.464 C 335.838 364.762, 311.478 377.467, 306.794 378.562 C 304.441 379.112, 303.983 378.823, 303.294 376.347 C 302.857 374.781, 302.500 355.725, 302.500 334 C 302.500 297.407, 302.635 294.276, 304.341 291.462 C 306.266 288.282, 317.851 280.362, 339.731 267.264 C 355.163 258.027, 380.158 244, 381.186 244 C 382.756 244, 383.783 247.821, 384.463 256.189 L 385.169 264.877 389.835 262.088 C 392.401 260.554, 401.206 255.353, 409.402 250.529 L 424.304 241.759 423.684 211.130 C 423.059 180.208, 422.692 175.988, 420.633 176.015 C 420.010 176.023, 414.100 178.980, 407.500 182.585 M 77.252 209.500 C 77.263 211.700, 77.468 212.482, 77.707 211.238 C 77.946 209.994, 77.937 208.194, 77.687 207.238 C 77.437 206.282, 77.241 207.300, 77.252 209.500 M 119.300 253 C 119.300 256.025, 119.487 257.262, 119.716 255.750 C 119.945 254.238, 119.945 251.762, 119.716 250.250 C 119.487 248.738, 119.300 249.975, 119.300 253 M 77.286 303.500 C 77.294 306.250, 77.488 307.256, 77.718 305.736 C 77.947 304.216, 77.941 301.966, 77.704 300.736 C 77.467 299.506, 77.279 300.750, 77.286 303.500" stroke="none" fill="#51b5ff" fill-rule="evenodd"/><path d="M 241.174 52.965 C 232.357 57.239, 220.005 64.830, 216.250 68.281 C 211.936 72.245, 214.048 71.929, 220.750 67.606 C 229.599 61.900, 241.420 56, 244.005 56 C 248.478 56, 271.226 67.446, 278.459 73.335 L 281.418 75.745 284.696 73.622 C 286.500 72.455, 287.981 70.962, 287.988 70.305 C 288.017 67.482, 260.131 51.360, 252 49.499 C 250.270 49.103, 246.936 50.171, 241.174 52.965 M 179.356 89.105 C 162.644 97.761, 152.006 104.400, 153.096 105.493 C 153.752 106.151, 155.171 105.851, 157.293 104.608 C 167.531 98.608, 183.374 91, 185.628 91 C 188.541 91, 203.681 98.880, 213.780 105.651 C 220.745 110.322, 222.288 110.451, 225.851 106.659 L 228.018 104.352 223.759 101.295 C 215.388 95.288, 194.613 84, 191.927 84 C 190.434 84, 184.777 86.297, 179.356 89.105 M 301.381 88.384 C 294.730 91.572, 276.520 102.206, 274.637 104.003 C 274.163 104.455, 274.067 105.299, 274.424 105.877 C 274.828 106.530, 277.155 105.596, 280.570 103.412 C 289.562 97.660, 302.105 92, 305.861 92 C 312.304 92, 342.754 109.592, 341.585 112.639 C 341.250 113.512, 341.450 113.840, 342.080 113.451 C 342.661 113.092, 342.901 112.184, 342.613 111.435 C 342.317 110.663, 343.372 109.160, 345.045 107.968 C 346.670 106.811, 348 105.435, 348 104.912 C 348 103.649, 335.861 95.848, 324.565 89.851 C 313.575 84.016, 310.855 83.844, 301.381 88.384 M 125 120.319 C 114.956 124.468, 92.330 138.943, 94.671 139.724 C 95.249 139.916, 99.379 137.806, 103.848 135.034 C 114.142 128.650, 124.021 124.535, 127.146 125.330 C 129.973 126.050, 144.892 134.504, 154.217 140.668 L 160.933 145.109 163.967 142.867 C 168.807 139.288, 168.931 139.436, 152.500 129.173 C 143.709 123.682, 133.043 117.993, 131.599 118.024 C 130.995 118.037, 128.025 119.070, 125 120.319 M 246.994 119.885 C 243.014 121.174, 238.341 123.756, 225.500 131.762 C 211.395 140.556, 212.639 139.607, 213.462 140.939 C 213.885 141.624, 215.644 140.965, 218.335 139.113 C 227.513 132.799, 241.597 126, 245.500 126 C 249.696 126, 262.903 132.539, 274.723 140.468 L 281.331 144.901 284.135 142.904 C 285.678 141.805, 287.195 140.494, 287.506 139.990 C 288.304 138.699, 280.383 133.134, 267.500 125.935 C 256.488 119.781, 251.687 118.364, 246.994 119.885 M 370.020 119.748 C 365.994 120.481, 349.799 128.388, 341.860 133.498 C 333.201 139.071, 333.498 138.831, 334.285 139.618 C 334.625 139.959, 341.235 137.034, 348.974 133.118 C 356.712 129.203, 364.203 126, 365.620 126 C 371.621 126, 401.631 143.833, 401.363 147.239 C 401.288 148.196, 401.656 148.713, 402.181 148.388 C 402.706 148.063, 402.901 147.184, 402.613 146.435 C 402.317 145.663, 403.372 144.160, 405.045 142.968 C 406.670 141.811, 408 140.458, 408 139.962 C 408 137.962, 379.932 121.041, 374.500 119.766 C 373.400 119.508, 371.384 119.500, 370.020 119.748 M 306.677 155.187 C 297.989 158.353, 275.420 172.287, 274.734 174.909 C 274.362 176.332, 275.610 175.898, 280.590 172.872 C 291.489 166.251, 302.389 161.004, 305.252 161.002 C 308.226 161, 324.509 169.076, 334.990 175.752 L 341.480 179.886 344.435 177.607 C 346.061 176.354, 347.546 174.862, 347.736 174.293 C 348.451 172.148, 316.006 153.929, 311.741 154.079 C 310.508 154.122, 308.230 154.621, 306.677 155.187 M 182.917 157.292 C 170.823 162.380, 155 172.156, 155 174.539 C 155 175.588, 156.295 175.185, 159.750 173.060 C 169.627 166.984, 180.348 162.500, 185 162.500 C 190.154 162.500, 204.054 168.675, 214.830 175.753 L 221.304 180.005 224.671 177.437 C 226.523 176.025, 227.776 174.447, 227.457 173.930 C 226.229 171.944, 214.534 164.689, 205.587 160.363 C 193.891 154.708, 190.235 154.213, 182.917 157.292 M 418 173.130 C 392.844 186.896, 330.272 222.679, 304 238.323 C 287.963 247.873, 276.557 256.068, 274.916 259.219 L 273.729 261.500 276.114 259.364 C 279.971 255.911, 291.166 249.067, 324.811 229.595 C 384.378 195.121, 418.597 176, 420.724 176 C 422.652 176, 423.041 180.381, 423.679 209.250 C 424.029 225.063, 424.581 237.990, 424.907 237.978 C 425.233 237.966, 426.586 237.121, 427.913 236.101 L 430.325 234.246 429.641 203.873 C 428.940 172.811, 428.611 168.990, 426.633 169.013 C 426.010 169.020, 422.125 170.873, 418 173.130 M 85 174.918 C 85 176.523, 84.777 178.436, 84.505 179.168 C 84.190 180.014, 86.288 181.737, 90.255 183.889 C 96.942 187.519, 129.486 206.133, 150 218.062 C 156.875 222.060, 179.150 234.889, 199.500 246.570 L 236.500 267.808 236.772 285.844 C 237.032 303.035, 237.141 303.910, 239.098 304.531 C 240.227 304.889, 241.450 304.884, 241.815 304.518 C 242.181 304.152, 242.645 294.318, 242.848 282.663 L 243.215 261.472 207.858 241.229 C 188.411 230.095, 165.075 216.665, 156 211.386 C 113.526 186.677, 87.266 172, 85.529 172 C 85.238 172, 85 173.313, 85 174.918 M 238.500 193.640 C 217.912 204.919, 212.747 208.147, 213.726 209.126 C 214.289 209.689, 220.461 206.923, 229.574 202.025 C 237.783 197.613, 245.005 194.002, 245.621 194.001 C 247.308 193.999, 264.333 203.531, 274.229 210.019 C 279.030 213.166, 282.730 215.372, 282.451 214.921 C 282.172 214.470, 283.307 213.094, 284.972 211.862 C 286.637 210.631, 288 209.302, 288 208.908 C 288 207.402, 253.790 186.947, 251.414 187.033 C 250.911 187.051, 245.100 190.024, 238.500 193.640 M 77.300 201 C 77.300 204.025, 77.487 205.262, 77.716 203.750 C 77.945 202.238, 77.945 199.762, 77.716 198.250 C 77.487 196.738, 77.300 197.975, 77.300 201 M 119.644 255.376 C 118.679 267.778, 118.926 327.967, 119.961 332.500 C 120.577 335.198, 122.110 337.576, 124.670 339.807 C 133.798 347.761, 190.469 380, 195.323 380 C 196.578 380, 198.782 373.378, 197.814 372.515 C 197.642 372.361, 194.125 370.544, 190 368.479 C 175.921 361.429, 147.928 345.129, 135.500 336.745 C 128.991 332.354, 127.263 330.635, 126.226 327.523 C 125.266 324.639, 125.020 314.667, 125.226 286.973 L 125.500 250.249 122.889 248.750 L 120.277 247.252 119.644 255.376 M 384.232 260 C 384.232 261.925, 384.438 262.712, 384.689 261.750 C 384.941 260.788, 384.941 259.212, 384.689 258.250 C 384.438 257.288, 384.232 258.075, 384.232 260 M 144.630 278.250 C 143.408 282.812, 143.940 284.733, 146.750 285.897 C 148.262 286.524, 169.075 298.234, 193 311.920 L 236.500 336.802 236.500 382.151 C 236.500 407.093, 236.193 429.172, 235.818 431.216 C 235.187 434.659, 235.273 434.846, 236.997 433.770 C 241.945 430.680, 242.943 419.942, 242.968 369.500 L 242.987 330.500 240.244 328.925 C 161.391 283.648, 147.768 276, 145.968 276 C 145.564 276, 144.962 277.012, 144.630 278.250 M 306.616 288.657 C 305.155 290.118, 303.631 292.480, 303.230 293.907 C 302.239 297.427, 302.297 372.773, 303.294 376.347 C 303.983 378.823, 304.441 379.112, 306.794 378.562 C 317.173 376.135, 366.170 347.702, 375.428 338.733 L 381.500 332.850 376 336.811 C 362.131 346.799, 316.223 372, 311.898 372 C 310.665 372, 309.764 370.812, 309.053 368.250 C 307.740 363.525, 307.632 293.769, 308.930 289.243 C 309.442 287.460, 309.728 286, 309.567 286 C 309.405 286, 308.077 287.195, 306.616 288.657 M 417 291.076 C 402.623 298.700, 393.294 304.778, 390.980 308.028 L 388.898 310.952 394.053 307.557 C 402.378 302.074, 421.770 292.437, 422.671 293.335 C 424.016 294.675, 424.265 323.583, 423.034 335.438 C 422.409 341.453, 421.087 348.775, 420.097 351.709 C 418.312 356.997, 418.313 357.027, 420.255 355.271 C 426.155 349.935, 428.916 337.727, 429.706 313.472 C 430.321 294.597, 429.689 285.987, 427.689 286.019 C 427.035 286.030, 422.225 288.305, 417 291.076 M 137.193 309.191 C 137.087 318.921, 137.338 327.092, 137.750 327.348 C 138.162 327.605, 138.383 322.344, 138.239 315.657 C 137.766 293.584, 137.388 291.250, 137.193 309.191 M 261.360 308 C 261.360 313.225, 261.529 315.363, 261.735 312.750 C 261.941 310.137, 261.941 305.863, 261.735 303.250 C 261.529 300.637, 261.360 302.775, 261.360 308 M 77.343 315.500 C 77.346 319.900, 77.522 321.576, 77.733 319.224 C 77.945 316.872, 77.942 313.272, 77.727 311.224 C 77.512 309.176, 77.339 311.100, 77.343 315.500 M 383.272 322 C 383.272 324.475, 383.467 325.488, 383.706 324.250 C 383.944 323.012, 383.944 320.988, 383.706 319.750 C 383.467 318.512, 383.272 319.525, 383.272 322 M 412.437 364.250 L 409.500 367.500 412.750 364.563 C 414.538 362.948, 416 361.485, 416 361.313 C 416 360.540, 415.175 361.221, 412.437 364.250 M 92 368.313 C 92 368.485, 93.463 369.948, 95.250 371.563 L 98.500 374.500 95.563 371.250 C 92.825 368.221, 92 367.540, 92 368.313 M 261.272 424 C 261.272 426.475, 261.467 427.488, 261.706 426.250 C 261.944 425.012, 261.944 422.988, 261.706 421.750 C 261.467 420.512, 261.272 421.525, 261.272 424" stroke="none" fill="#d9d9d9" fill-rule="evenodd"/><path d="M 236.472 59.349 C 228.280 63.284, 217.049 70.038, 211.736 74.224 L 207.972 77.190 210.236 78.942 C 212.877 80.985, 241.115 97.723, 243.400 98.600 C 245.037 99.228, 271.282 85.751, 278.246 80.707 L 282.214 77.833 279.568 75.071 C 275.267 70.582, 248.264 56, 244.252 56 C 243.807 56, 240.306 57.507, 236.472 59.349 M 121.748 126.569 C 112.257 129.927, 89 144.185, 89 146.645 C 89 149.839, 118.723 166, 124.597 166 C 128.705 166, 152.032 154.413, 157.580 149.617 L 161.408 146.308 157.193 143.255 C 151.466 139.106, 133.313 128.426, 129 126.668 C 126.049 125.466, 124.912 125.450, 121.748 126.569 M 242.500 126.921 C 240.850 127.336, 237.052 128.925, 234.059 130.452 C 226.726 134.192, 208 146.066, 208 146.975 C 208 147.764, 227.251 159.170, 235.717 163.396 C 243.514 167.288, 248.178 166.928, 258.260 161.654 C 268.089 156.512, 281.326 147.891, 281.428 146.564 C 281.590 144.455, 253.533 127.747, 248 126.658 C 246.625 126.387, 244.150 126.506, 242.500 126.921 M 352.050 132.024 C 339.642 138.091, 327.681 145.675, 328.480 146.968 C 329.166 148.077, 347.361 159.035, 357.771 164.608 L 365.042 168.500 374.649 163.500 C 387.565 156.778, 401.312 148.563, 401.727 147.320 C 402.634 144.597, 371.677 127.050, 365.911 127.019 C 363.603 127.007, 358.658 128.792, 352.050 132.024 M 78.500 190.250 C 78.120 195.887, 77.964 233.350, 78.154 273.500 L 78.500 346.500 81.302 352.030 C 85.528 360.370, 96.438 372.829, 101.372 374.950 C 103.643 375.926, 113.150 381.219, 122.500 386.713 C 159.532 408.470, 190.098 425.541, 209.203 435.137 C 221.157 441.141, 223.831 442.127, 226.837 441.639 C 231.599 440.866, 233.764 438.450, 235.036 432.486 C 235.648 429.621, 236.321 408.357, 236.618 382.500 L 237.135 337.500 214.317 324.507 C 142.563 283.647, 140.438 282.507, 139.303 284.260 C 138.861 284.942, 138.360 294.725, 138.190 306 L 137.880 326.500 152.190 334.443 C 174.106 346.609, 193.157 358.066, 195.704 360.613 C 197.709 362.618, 197.998 363.896, 197.985 370.705 C 197.964 381.422, 197.456 382.008, 190.816 378.978 C 171.981 370.382, 125.298 342.679, 121.076 337.592 C 118.610 334.620, 117.886 317.475, 118.704 281.367 L 119.500 246.234 132.500 253.724 C 139.650 257.844, 154.500 266.411, 165.500 272.761 C 219.248 303.791, 234.876 312.457, 235.665 311.668 C 235.974 311.359, 236.450 301.520, 236.723 289.803 L 237.219 268.500 228.360 263.542 C 216.968 257.166, 170.898 230.751, 151.500 219.473 C 129.295 206.563, 88.973 183.518, 85.300 181.638 C 79.510 178.675, 79.261 178.990, 78.500 190.250 M 229.956 202.335 C 221.438 206.886, 212.722 211.796, 210.589 213.246 L 206.709 215.882 214.605 220.971 C 218.947 223.770, 227.528 228.623, 233.673 231.754 L 244.846 237.448 256.214 231.792 C 267.464 226.194, 282 217.233, 282 215.894 C 282 214.960, 265.655 204.858, 254.488 198.891 L 245.444 194.059 229.956 202.335" stroke="none" fill="#000000" fill-rule="evenodd"/><path d="M 77.459 256 C 77.459 279.925, 77.589 289.713, 77.749 277.750 C 77.908 265.788, 77.908 246.213, 77.749 234.250 C 77.589 222.288, 77.459 232.075, 77.459 256 M 118.405 307.500 C 118.406 316.300, 118.559 319.766, 118.745 315.203 C 118.930 310.639, 118.929 303.439, 118.742 299.203 C 118.555 294.966, 118.404 298.700, 118.405 307.500 M 236.232 304 C 236.232 305.925, 236.438 306.712, 236.689 305.750 C 236.941 304.788, 236.941 303.212, 236.689 302.250 C 236.438 301.288, 236.232 302.075, 236.232 304 M 78.272 336 C 78.272 338.475, 78.467 339.488, 78.706 338.250 C 78.944 337.012, 78.944 334.988, 78.706 333.750 C 78.467 332.512, 78.272 333.525, 78.272 336 M 236.310 416.500 C 236.315 419.800, 236.502 421.029, 236.725 419.232 C 236.947 417.435, 236.943 414.735, 236.715 413.232 C 236.486 411.729, 236.304 413.200, 236.310 416.500" stroke="none" fill="#295474" fill-rule="evenodd"/></svg>