<svg xmlns="http://www.w3.org/2000/svg" width="178" height="157" viewBox="0 0 178 157" version="1.1"><path d="M 84.972 22.810 C 75.591 25.926, 60.509 34.818, 62.017 36.344 C 62.301 36.631, 65.871 35.209, 69.951 33.183 C 77.087 29.639, 77.768 29.500, 87.934 29.500 C 97.488 29.500, 99.122 29.782, 105 32.442 C 110.748 35.044, 112.830 35.424, 123 35.727 L 134.500 36.070 131.500 33.580 C 119.461 23.588, 97.757 18.564, 84.972 22.810 M 106.500 115.352 C 99.845 118.345, 98.883 118.499, 87 118.488 C 75.255 118.476, 74.177 118.306, 69.151 115.670 C 66.208 114.128, 63.598 113.068, 63.350 113.316 C 62.504 114.163, 74.962 121.827, 79.737 123.398 C 92.172 127.489, 106.623 127.201, 117.853 122.638 C 125.021 119.725, 133.271 114.247, 132.462 112.938 C 132.143 112.422, 127.746 112.046, 122.691 112.102 C 114.658 112.191, 112.618 112.600, 106.500 115.352" stroke="none" fill="#fdd94a" fill-rule="evenodd"/><path d="M 69 3.531 C 56.946 7.160, 49.504 10.870, 41.800 17.090 C 29.934 26.671, 22.084 38.162, 16.926 53.500 C 14.945 59.389, 14.575 62.485, 14.593 73 C 14.618 87.289, 16.125 94.417, 21.548 105.898 C 27.621 118.756, 36.917 128.584, 51.225 137.273 C 67.345 147.062, 91.035 149.171, 110.262 142.528 C 116.905 140.233, 128.590 133.458, 134.500 128.475 C 137.245 126.161, 136.842 126.243, 129.766 129.440 C 114.583 136.301, 102.919 138.062, 89.028 135.591 C 76.423 133.350, 67.457 128.522, 57.316 118.517 C 50.713 112.003, 48.313 108.795, 45.521 102.751 C 40.889 92.727, 39.033 84.422, 39.015 73.644 C 38.979 52.159, 48.597 34.103, 66.430 22.175 C 76.700 15.306, 84.154 12.897, 97 12.294 C 109.587 11.703, 117.629 13.307, 128.145 18.504 C 132.078 20.447, 135.498 21.835, 135.745 21.588 C 136.557 20.776, 123.903 12.056, 117.430 8.967 C 108.802 4.849, 97.589 2.129, 86.638 1.498 C 78.755 1.044, 76.332 1.323, 69 3.531 M 93.507 47.615 L 92.804 58.500 85.167 66.258 L 77.531 74.016 85.766 82.250 L 94 90.485 102.197 82.288 C 110.288 74.197, 110.369 74.066, 108.542 72.046 C 105.860 69.083, 104.495 69.456, 98.910 74.681 L 93.907 79.361 91.227 76.682 L 88.548 74.002 95.999 66.501 C 100.097 62.376, 103.901 59, 104.451 59 C 105.848 59, 120 73.192, 120 74.592 C 120 75.874, 106.206 89.313, 101.362 92.750 C 98.620 94.696, 98.069 94.789, 96.990 93.488 C 94.383 90.347, 93.821 92.006, 94.531 100.750 C 94.921 105.563, 95.428 109.704, 95.657 109.953 C 96.247 110.596, 131 75.737, 131 74.501 C 131 73.939, 122.722 65.211, 112.605 55.105 L 94.211 36.731 93.507 47.615 M 72.250 58.241 C 63.862 66.646, 57 73.974, 57 74.524 C 57 75.664, 86.131 105, 87.262 105 C 87.668 105, 88 102.854, 88 100.231 C 88 95.522, 87.876 95.339, 78 85.500 C 72.500 80.021, 68 75.087, 68 74.536 C 68 73.985, 72.526 68.992, 78.058 63.441 L 88.117 53.349 87.808 48.153 L 87.500 42.958 72.250 58.241" stroke="none" fill="#1aabf4" fill-rule="evenodd"/></svg>