<svg xmlns="http://www.w3.org/2000/svg" width="500" height="500" viewBox="0 0 500 500" version="1.1"><path d="M 241.174 52.965 C 232.357 57.239, 220.005 64.830, 216.250 68.281 C 211.936 72.245, 214.048 71.929, 220.750 67.606 C 229.599 61.900, 241.420 56, 244.005 56 C 248.478 56, 271.226 67.446, 278.459 73.335 L 281.418 75.745 284.696 73.622 C 286.500 72.455, 287.981 70.962, 287.988 70.305 C 288.017 67.482, 260.131 51.360, 252 49.499 C 250.270 49.103, 246.936 50.171, 241.174 52.965 M 179.356 89.105 C 162.644 97.761, 152.006 104.400, 153.096 105.493 C 153.752 106.151, 155.171 105.851, 157.293 104.608 C 167.531 98.608, 183.374 91, 185.628 91 C 188.541 91, 203.681 98.880, 213.780 105.651 C 220.745 110.322, 222.288 110.451, 225.851 106.659 L 228.018 104.352 223.759 101.295 C 215.388 95.288, 194.613 84, 191.927 84 C 190.434 84, 184.777 86.297, 179.356 89.105 M 301.381 88.384 C 294.730 91.572, 276.520 102.206, 274.637 104.003 C 274.163 104.455, 274.067 105.299, 274.424 105.877 C 274.828 106.530, 277.155 105.596, 280.570 103.412 C 289.562 97.660, 302.105 92, 305.861 92 C 312.304 92, 342.754 109.592, 341.585 112.639 C 341.250 113.512, 341.450 113.840, 342.080 113.451 C 342.661 113.092, 342.901 112.184, 342.613 111.435 C 342.317 110.663, 343.372 109.160, 345.045 107.968 C 346.670 106.811, 348 105.435, 348 104.912 C 348 103.649, 335.861 95.848, 324.565 89.851 C 313.575 84.016, 310.855 83.844, 301.381 88.384 M 125 120.319 C 114.956 124.468, 92.330 138.943, 94.671 139.724 C 95.249 139.916, 99.379 137.806, 103.848 135.034 C 114.142 128.650, 124.021 124.535, 127.146 125.330 C 129.973 126.050, 144.892 134.504, 154.217 140.668 L 160.933 145.109 163.967 142.867 C 168.807 139.288, 168.931 139.436, 152.500 129.173 C 143.709 123.682, 133.043 117.993, 131.599 118.024 C 130.995 118.037, 128.025 119.070, 125 120.319 M 246.994 119.885 C 243.014 121.174, 238.341 123.756, 225.500 131.762 C 211.395 140.556, 212.639 139.607, 213.462 140.939 C 213.885 141.624, 215.644 140.965, 218.335 139.113 C 227.513 132.799, 241.597 126, 245.500 126 C 249.696 126, 262.903 132.539, 274.723 140.468 L 281.331 144.901 284.135 142.904 C 285.678 141.805, 287.195 140.494, 287.506 139.990 C 288.304 138.699, 280.383 133.134, 267.500 125.935 C 256.488 119.781, 251.687 118.364, 246.994 119.885 M 370.020 119.748 C 365.994 120.481, 349.799 128.388, 341.860 133.498 C 333.201 139.071, 333.498 138.831, 334.285 139.618 C 334.625 139.959, 341.235 137.034, 348.974 133.118 C 356.712 129.203, 364.203 126, 365.620 126 C 371.621 126, 401.631 143.833, 401.363 147.239 C 401.288 148.196, 401.656 148.713, 402.181 148.388 C 402.706 148.063, 402.901 147.184, 402.613 146.435 C 402.317 145.663, 403.372 144.160, 405.045 142.968 C 406.670 141.811, 408 140.458, 408 139.962 C 408 137.962, 379.932 121.041, 374.500 119.766 C 373.400 119.508, 371.384 119.500, 370.020 119.748 M 306.677 155.187 C 297.885 158.390, 275.418 172.294, 274.720 174.963 C 274.317 176.502, 275.126 176.255, 279.366 173.546 C 288.313 167.829, 302.398 161.004, 305.252 161.002 C 308.226 161, 324.510 169.077, 334.990 175.752 L 341.480 179.886 344.435 177.607 C 346.061 176.354, 347.546 174.862, 347.736 174.293 C 348.451 172.148, 316.006 153.929, 311.741 154.079 C 310.508 154.122, 308.230 154.621, 306.677 155.187 M 182.917 157.292 C 170.823 162.380, 155 172.156, 155 174.539 C 155 175.588, 156.295 175.185, 159.750 173.060 C 169.627 166.984, 180.348 162.500, 185 162.500 C 190.154 162.500, 204.054 168.675, 214.830 175.753 L 221.304 180.005 224.671 177.437 C 226.523 176.025, 227.776 174.447, 227.457 173.930 C 226.229 171.944, 214.534 164.689, 205.587 160.363 C 193.891 154.708, 190.235 154.213, 182.917 157.292 M 418 173.130 C 392.844 186.896, 330.272 222.679, 304 238.323 C 288.403 247.610, 276.586 256.037, 274.998 259.003 C 274.174 260.543, 275.069 260.171, 278.515 257.541 C 283.602 253.657, 298.625 244.642, 336.500 222.744 C 393.231 189.944, 420.430 175.097, 421.615 176.282 C 422.784 177.451, 423.851 197.023, 423.930 218.750 C 423.969 229.338, 424.337 237.990, 424.750 237.978 C 425.163 237.966, 426.586 237.121, 427.913 236.101 L 430.325 234.246 429.641 203.873 C 428.940 172.811, 428.611 168.990, 426.633 169.013 C 426.010 169.020, 422.125 170.873, 418 173.130 M 85 174.918 C 85 176.523, 84.777 178.436, 84.505 179.168 C 84.190 180.014, 86.288 181.737, 90.255 183.889 C 96.942 187.519, 129.486 206.133, 150 218.062 C 156.875 222.060, 179.150 234.889, 199.500 246.570 L 236.500 267.808 236.772 285.844 C 237.032 303.035, 237.141 303.910, 239.098 304.531 C 240.227 304.889, 241.450 304.884, 241.815 304.518 C 242.181 304.152, 242.645 294.318, 242.848 282.663 L 243.215 261.472 207.858 241.229 C 188.411 230.095, 165.075 216.665, 156 211.386 C 113.526 186.677, 87.266 172, 85.529 172 C 85.238 172, 85 173.313, 85 174.918 M 238.500 193.640 C 217.912 204.919, 212.747 208.147, 213.726 209.126 C 214.289 209.689, 220.461 206.923, 229.574 202.025 C 237.783 197.613, 245.005 194.002, 245.621 194.001 C 247.308 193.999, 264.333 203.531, 274.229 210.019 C 279.030 213.166, 282.730 215.372, 282.451 214.921 C 282.172 214.470, 283.307 213.094, 284.972 211.862 C 286.637 210.631, 288 209.302, 288 208.908 C 288 207.402, 253.790 186.947, 251.414 187.033 C 250.911 187.051, 245.100 190.024, 238.500 193.640 M 77.300 201 C 77.300 204.025, 77.487 205.262, 77.716 203.750 C 77.945 202.238, 77.945 199.762, 77.716 198.250 C 77.487 196.738, 77.300 197.975, 77.300 201 M 119.644 255.376 C 118.679 267.778, 118.926 327.967, 119.961 332.500 C 120.577 335.198, 122.110 337.576, 124.670 339.807 C 133.798 347.761, 190.469 380, 195.323 380 C 196.578 380, 198.782 373.378, 197.814 372.515 C 197.642 372.361, 194.125 370.544, 190 368.479 C 175.921 361.429, 147.928 345.129, 135.500 336.745 C 128.991 332.354, 127.263 330.635, 126.226 327.523 C 125.266 324.639, 125.020 314.667, 125.226 286.973 L 125.500 250.249 122.889 248.750 L 120.277 247.252 119.644 255.376 M 384.232 260 C 384.232 261.925, 384.438 262.712, 384.689 261.750 C 384.941 260.788, 384.941 259.212, 384.689 258.250 C 384.438 257.288, 384.232 258.075, 384.232 260 M 144.630 278.250 C 143.408 282.812, 143.940 284.733, 146.750 285.897 C 148.262 286.524, 169.075 298.234, 193 311.920 L 236.500 336.802 236.500 382.151 C 236.500 407.093, 236.193 429.172, 235.818 431.216 C 235.187 434.659, 235.273 434.846, 236.997 433.770 C 241.945 430.680, 242.943 419.942, 242.968 369.500 L 242.987 330.500 240.244 328.925 C 161.391 283.648, 147.768 276, 145.968 276 C 145.564 276, 144.962 277.012, 144.630 278.250 M 306.616 288.657 C 305.155 290.118, 303.631 292.480, 303.230 293.907 C 302.239 297.427, 302.297 372.773, 303.294 376.347 C 303.984 378.824, 304.439 379.112, 306.794 378.557 C 317.168 376.113, 366.193 347.677, 375.388 338.770 L 381.500 332.850 376 336.811 C 362.131 346.799, 316.223 372, 311.898 372 C 310.665 372, 309.764 370.812, 309.053 368.250 C 307.740 363.525, 307.632 293.769, 308.930 289.243 C 309.442 287.460, 309.728 286, 309.567 286 C 309.405 286, 308.077 287.195, 306.616 288.657 M 417 291.076 C 402.623 298.700, 393.294 304.778, 390.980 308.028 L 388.898 310.952 394.053 307.557 C 396.889 305.690, 404.343 301.538, 410.617 298.331 C 420.249 293.408, 422.176 292.734, 422.997 294 C 424.310 296.026, 424.260 324.736, 422.922 336.789 C 422.329 342.130, 421.046 348.872, 420.070 351.771 C 418.312 356.996, 418.313 357.026, 420.255 355.271 C 426.155 349.935, 428.916 337.727, 429.706 313.472 C 430.321 294.597, 429.689 285.987, 427.689 286.019 C 427.035 286.030, 422.225 288.305, 417 291.076 M 137.193 309.191 C 137.087 318.921, 137.338 327.092, 137.750 327.348 C 138.162 327.605, 138.383 322.344, 138.239 315.657 C 137.766 293.584, 137.388 291.250, 137.193 309.191 M 261.360 308 C 261.360 313.225, 261.529 315.363, 261.735 312.750 C 261.941 310.137, 261.941 305.863, 261.735 303.250 C 261.529 300.637, 261.360 302.775, 261.360 308 M 77.343 315.500 C 77.346 319.900, 77.522 321.576, 77.733 319.224 C 77.945 316.872, 77.942 313.272, 77.727 311.224 C 77.512 309.176, 77.339 311.100, 77.343 315.500 M 383.272 322 C 383.272 324.475, 383.467 325.488, 383.706 324.250 C 383.944 323.012, 383.944 320.988, 383.706 319.750 C 383.467 318.512, 383.272 319.525, 383.272 322 M 412.437 364.250 L 409.500 367.500 412.750 364.563 C 414.538 362.948, 416 361.485, 416 361.313 C 416 360.540, 415.175 361.221, 412.437 364.250 M 92 368.313 C 92 368.485, 93.463 369.948, 95.250 371.563 L 98.500 374.500 95.563 371.250 C 92.825 368.221, 92 367.540, 92 368.313 M 261.272 424 C 261.272 426.475, 261.467 427.488, 261.706 426.250 C 261.944 425.012, 261.944 422.988, 261.706 421.750 C 261.467 420.512, 261.272 421.525, 261.272 424" stroke="none" fill="#d9d9d9" fill-rule="evenodd"/><path d="M 171.745 96.831 C 159.629 103.106, 147 110.767, 147 111.842 C 147 112.704, 161.649 121.580, 165.361 122.966 C 166.934 123.554, 170.180 125.441, 172.574 127.161 C 178.656 131.528, 184.707 132.006, 192.759 128.753 C 200.546 125.608, 218.027 115.733, 220.348 113.168 C 222.078 111.257, 221.915 111.072, 213.811 105.738 C 201.874 97.883, 188.724 91, 185.650 91 C 184.195 91, 177.937 93.624, 171.745 96.831 M 294.972 95.573 C 284.309 100.672, 267.845 111.031, 268.279 112.367 C 268.751 113.822, 277.244 118.920, 293.086 127.257 L 305.673 133.881 321.086 125.326 C 337.729 116.089, 342 113.361, 342 111.969 C 342 109.043, 311.178 92, 305.885 92 C 303.992 92, 299.081 93.608, 294.972 95.573 M 293.500 165.633 C 281.343 171.885, 269 179.894, 269 181.528 C 269 183.315, 272.261 185.501, 286.500 193.260 C 303.787 202.680, 304.573 202.857, 312.569 199.115 C 319.932 195.669, 337.589 185.525, 340.250 183.211 C 341.212 182.375, 342 181.350, 342 180.935 C 342 178.587, 309.574 160.999, 305.252 161.002 C 303.738 161.003, 298.450 163.087, 293.500 165.633 M 178.989 163.385 C 169.292 167.100, 149 178.956, 149 180.907 C 149 184.051, 179.073 201, 184.650 201 C 189.494 201, 217.350 186.898, 220.860 182.669 C 222.667 180.491, 216.865 176.139, 202.500 168.901 C 189.649 162.425, 184.591 161.238, 178.989 163.385 M 402.500 185.327 C 393.150 190.442, 374.475 200.961, 361 208.704 C 273.064 259.234, 272.125 259.848, 266.912 270.173 C 261.967 279.970, 261.659 285.241, 261.576 361.500 C 261.505 427.142, 261.614 431.796, 263.337 436.261 C 265.558 442.017, 267.809 443.406, 273.526 442.548 C 278.788 441.759, 297.921 432.101, 324.500 416.818 C 398.846 374.068, 407.205 369.057, 412.335 364.160 C 420.899 355.986, 422.949 347.511, 423.626 317.500 C 423.943 303.450, 423.756 294.965, 423.109 294.018 C 422.238 292.745, 421.278 292.932, 416.298 295.343 C 405.093 300.768, 391.020 309.116, 387.528 312.409 C 384.537 315.230, 383.999 316.403, 383.994 320.118 C 383.978 332.920, 377.865 339.593, 352.052 354.980 C 334.034 365.721, 311.540 377.439, 306.794 378.557 C 304.439 379.112, 303.984 378.824, 303.294 376.347 C 302.857 374.781, 302.500 355.725, 302.500 334 C 302.500 297.407, 302.635 294.276, 304.341 291.462 C 306.266 288.282, 317.851 280.362, 339.731 267.264 C 355.163 258.027, 380.158 244, 381.186 244 C 382.756 244, 383.783 247.821, 384.463 256.189 L 385.169 264.877 389.835 262.088 C 392.401 260.554, 401.206 255.353, 409.402 250.529 L 424.304 241.759 423.684 211.130 C 423.059 180.208, 422.692 175.989, 420.633 176.014 C 420.010 176.022, 411.850 180.213, 402.500 185.327 M 77.252 209.500 C 77.263 211.700, 77.468 212.482, 77.707 211.238 C 77.946 209.994, 77.937 208.194, 77.687 207.238 C 77.437 206.282, 77.241 207.300, 77.252 209.500 M 119.300 253 C 119.300 256.025, 119.487 257.262, 119.716 255.750 C 119.945 254.238, 119.945 251.762, 119.716 250.250 C 119.487 248.738, 119.300 249.975, 119.300 253 M 77.286 303.500 C 77.294 306.250, 77.488 307.256, 77.718 305.736 C 77.947 304.216, 77.941 301.966, 77.704 300.736 C 77.467 299.506, 77.279 300.750, 77.286 303.500" stroke="none" fill="#51b5ff" fill-rule="evenodd"/><path d="M 238.183 57.955 C 225.150 64.015, 207.335 76.116, 208.551 78.082 C 208.850 78.566, 215.711 82.860, 223.797 87.625 C 231.884 92.389, 239.863 97.098, 241.529 98.088 L 244.558 99.890 261.214 90.695 C 281.709 79.381, 282.529 78.820, 281.707 76.678 C 280.319 73.062, 252.507 57.376, 245.780 56.416 C 243.728 56.123, 240.884 56.699, 238.183 57.955 M 116.377 128.387 C 102.606 134.986, 87.741 145.163, 88.601 147.402 C 89.302 149.229, 108.736 160.663, 117.147 164.197 C 123.426 166.835, 124.466 167.003, 127.802 165.922 C 137.683 162.718, 161 149.222, 161 146.708 C 161 144.181, 129.532 125, 125.386 125 C 124.318 125, 120.263 126.524, 116.377 128.387 M 237 128.563 C 231.119 131.282, 206.993 146.092, 207.010 146.973 C 207.021 147.505, 230.511 161.297, 237 164.580 C 241.793 167.006, 248.486 166.804, 254.444 164.055 C 264.737 159.305, 282 147.945, 282 145.922 C 282 144.944, 268.551 136.427, 257.899 130.658 C 247.890 125.238, 244.850 124.933, 237 128.563 M 361 127.433 C 350.108 131.452, 327.735 144.507, 328.323 146.500 C 328.764 147.995, 337.940 153.892, 352.331 161.930 L 365.162 169.096 378.331 161.906 C 395.729 152.407, 402.231 148.192, 401.743 146.728 C 400.691 143.572, 370.464 125.917, 366.376 126.070 C 365.344 126.109, 362.925 126.722, 361 127.433 M 78.334 185.709 C 77.141 195.420, 77.513 333.807, 78.757 343.122 C 79.544 349.017, 80.557 351.966, 83.229 356.144 C 89.062 365.263, 97.311 373.384, 104.214 376.805 C 107.671 378.518, 116.350 383.391, 123.500 387.633 C 147.470 401.853, 187.342 424.202, 204.690 433.142 C 223.352 442.759, 228.048 443.952, 231.935 440.065 C 235.981 436.019, 236.298 432.321, 236.741 383.997 L 237.167 337.493 211.833 322.879 C 152.040 288.384, 140.547 282.120, 139.312 283.352 C 138.865 283.798, 138.363 293.737, 138.196 305.438 L 137.892 326.714 159.696 339.013 C 192.471 357.500, 196.802 360.427, 197.589 364.623 C 198.316 368.496, 197.699 378.635, 196.674 379.659 C 195.376 380.957, 188.280 377.915, 173.445 369.701 C 144.653 353.760, 126.572 342.453, 122 337.532 L 119.500 334.841 119.200 291.771 C 119.035 268.082, 119.260 248.354, 119.700 247.929 C 120.140 247.505, 129.500 252.347, 140.500 258.689 C 225.925 307.940, 234.578 312.755, 235.683 311.651 C 236.133 311.203, 236.650 301.270, 236.834 289.577 L 237.168 268.318 201.334 247.773 C 181.625 236.473, 158.750 223.301, 150.500 218.502 C 103.197 190.988, 84.941 180.718, 81.334 179.594 C 79.308 178.962, 79.114 179.357, 78.334 185.709 M 231 201.336 C 215.453 209.775, 206.997 214.885, 207.007 215.836 C 207.030 218.105, 240.930 237, 244.977 237 C 249.280 237, 282 218.441, 282 216 C 282 214.182, 248.517 193.992, 245.523 194.004 C 244.960 194.007, 238.425 197.306, 231 201.336" stroke="none" fill="#295474" fill-rule="evenodd"/><path d="M 0 250.002 L 0 500.004 250.250 499.752 L 500.500 499.500 500.752 249.750 L 501.004 0 250.502 0 L 0 0 0 250.002 M 0.492 250.500 C 0.492 388, 0.608 444.101, 0.750 375.170 C 0.892 306.238, 0.892 193.738, 0.750 125.170 C 0.608 56.601, 0.492 113, 0.492 250.500 M 241.174 52.965 C 229.452 58.648, 219.396 65.333, 213.124 71.611 C 208.506 76.234, 207.933 77.214, 209.056 78.567 C 210.201 79.948, 228.983 91.473, 240.579 97.911 L 244.658 100.176 259.750 92.037 C 277.476 82.477, 283.168 78.601, 282.404 76.610 C 282.071 75.742, 283.048 74.494, 284.930 73.382 C 286.619 72.385, 288 71.016, 288 70.339 C 288 67.476, 260.181 51.372, 252 49.499 C 250.270 49.103, 246.936 50.171, 241.174 52.965 M 179.356 89.105 C 162.510 97.831, 152.062 104.370, 153.056 105.567 C 153.653 106.287, 152.579 107.430, 149.883 108.946 C 146.513 110.840, 146.040 111.457, 147.154 112.514 C 149.543 114.782, 163.404 123, 164.840 123 C 165.606 123, 168.350 124.555, 170.939 126.455 C 177.187 131.041, 182.094 132.088, 189.027 130.314 C 198.121 127.986, 222.364 114.211, 221.791 111.697 C 221.631 110.995, 223 109.079, 224.834 107.440 L 228.169 104.460 223.834 101.349 C 215.401 95.297, 194.625 84, 191.927 84 C 190.434 84, 184.777 86.297, 179.356 89.105 M 298.782 89.764 C 285.865 96.393, 273.848 104.045, 274.287 105.362 C 274.490 105.970, 272.860 107.767, 270.666 109.357 L 266.676 112.247 269.088 114.085 C 271.277 115.753, 278.352 119.705, 298.540 130.533 L 305.580 134.310 317.040 128.038 C 335.432 117.973, 343.188 112.934, 342.610 111.425 C 342.318 110.665, 343.386 109.149, 345.045 107.968 C 346.670 106.811, 348 105.435, 348 104.912 C 348 103.649, 335.861 95.848, 324.565 89.851 C 312.846 83.630, 310.747 83.622, 298.782 89.764 M 125 120.319 C 114.686 124.579, 93.418 138.250, 94.466 139.945 C 94.744 140.395, 93.406 141.828, 91.492 143.131 C 85.761 147.034, 86.510 148.036, 101.495 156.522 C 113.133 163.113, 121.966 167, 125.307 167 C 131.162 167, 161.908 149.185, 161.258 146.170 C 161.125 145.553, 162.362 144.053, 164.008 142.836 C 168.802 139.292, 168.914 139.425, 152.500 129.173 C 143.709 123.682, 133.043 117.993, 131.599 118.024 C 130.995 118.037, 128.025 119.070, 125 120.319 M 246.416 120.026 C 243.730 120.849, 235.232 125.748, 217.739 136.557 C 215.068 138.207, 213.187 140.044, 213.454 140.740 C 213.718 141.430, 212.172 142.984, 209.973 144.240 C 207.796 145.483, 206.016 146.725, 206.018 147 C 206.021 147.692, 235.847 164.674, 239.315 165.958 C 245.867 168.383, 252.054 166.459, 267.500 157.193 C 279.086 150.242, 283.191 147.119, 282.408 145.850 C 282.061 145.290, 283.267 143.588, 285.087 142.069 L 288.396 139.306 283.448 135.694 C 275.215 129.683, 256.727 119.810, 253 119.435 C 251.075 119.240, 248.112 119.507, 246.416 120.026 M 369.500 119.950 C 361.212 121.951, 333.593 137.278, 334.324 139.471 C 334.506 140.019, 332.848 141.776, 330.639 143.377 L 326.622 146.287 329.418 148.516 C 332.973 151.351, 344.908 158.429, 356.529 164.594 L 365.557 169.384 378.029 162.537 C 396.233 152.542, 403.202 147.969, 402.604 146.409 C 402.319 145.669, 403.408 144.133, 405.045 142.968 C 406.670 141.811, 408 140.458, 408 139.962 C 408 137.985, 380.125 121.150, 374.500 119.731 C 373.400 119.453, 371.150 119.552, 369.500 119.950 M 306.677 155.187 C 298.884 158.026, 274.994 172.496, 275.009 174.367 C 275.014 174.990, 273.551 176.714, 271.759 178.199 C 269.058 180.436, 268.687 181.206, 269.590 182.699 C 271.775 186.309, 298.142 200.662, 304.478 201.690 C 307.258 202.141, 309.614 201.316, 317.368 197.173 C 332.518 189.078, 342.495 182.581, 342.497 180.807 C 342.499 179.917, 343.738 178.213, 345.250 177.021 C 346.762 175.830, 348 174.484, 348 174.031 C 348 171.813, 315.529 153.945, 311.741 154.079 C 310.508 154.122, 308.230 154.621, 306.677 155.187 M 182.917 157.292 C 171.754 161.989, 155 172.131, 155 174.192 C 155 174.795, 153.334 176.728, 151.298 178.488 L 147.597 181.688 152.548 185.333 C 160.435 191.139, 181.269 201.325, 185.038 201.218 C 191.348 201.039, 222.356 184.362, 221.774 181.460 C 221.623 180.708, 223.051 178.791, 224.948 177.200 L 228.396 174.306 223.448 170.633 C 216.382 165.387, 197.219 155.961, 192.500 155.410 C 189.714 155.085, 186.805 155.656, 182.917 157.292 M 418 173.130 C 370.145 199.317, 295.130 242.992, 284 251.148 C 276.943 256.320, 269.371 264.469, 266.477 270.008 C 261.863 278.838, 261.750 280.671, 261.271 354.167 C 260.800 426.618, 261.151 435.069, 264.843 439.968 C 266.481 442.142, 267.511 442.493, 272.125 442.448 C 279.913 442.372, 290.204 437.047, 357 398.531 C 408.018 369.112, 411.537 366.825, 417.258 359.354 C 427.908 345.448, 429.321 339.583, 429.426 308.839 C 429.467 296.925, 429.148 286.823, 428.718 286.390 C 426.659 284.317, 397.341 301.441, 390.133 308.926 C 384.002 315.295, 383 317.357, 383 323.615 C 383 332.268, 380.372 334.835, 357.500 348.526 C 341.958 357.829, 314.428 372, 311.898 372 C 310.665 372, 309.764 370.812, 309.053 368.250 C 307.909 364.131, 307.556 295.471, 308.650 289.998 C 309.203 287.234, 310.741 285.814, 318.900 280.538 C 341.308 266.050, 378.217 245, 381.215 245 C 383.049 245, 383.994 249.007, 384.015 256.875 C 384.024 259.969, 384.377 263.045, 384.800 263.711 C 385.344 264.567, 391.202 261.635, 404.776 253.711 C 419.717 244.989, 423.983 242.048, 423.991 240.466 C 423.996 239.249, 425.270 237.681, 427.157 236.566 L 430.314 234.701 429.638 204.101 C 428.946 172.839, 428.617 168.990, 426.633 169.013 C 426.010 169.020, 422.125 170.873, 418 173.130 M 84.810 175.750 C 84.530 179.138, 84.246 179.474, 81.865 179.230 C 80.128 179.052, 78.955 179.564, 78.426 180.730 C 77.234 183.356, 76.706 308.406, 77.793 330.810 L 78.730 350.121 83.301 356.810 C 90.769 367.738, 97.498 373.973, 107.500 379.231 C 112.450 381.834, 121.225 386.750, 127 390.156 C 150.884 404.244, 189.605 425.869, 205.683 434.100 C 220.804 441.840, 223.324 442.830, 226.683 442.347 C 229.141 441.993, 231.281 440.855, 232.694 439.149 C 233.901 437.692, 235.798 435.487, 236.910 434.249 C 238.021 433.011, 239.407 431.108, 239.989 430.020 C 242.055 426.161, 242.949 408, 242.968 369.500 L 242.987 330.500 240.244 328.925 C 160.291 283.016, 147.779 276, 145.863 276 C 145.401 276, 144.738 277.786, 144.389 279.969 C 143.843 283.381, 143.505 283.806, 141.982 282.990 C 138.254 280.995, 137.619 284.025, 137.177 305.908 L 136.759 326.623 159.630 339.461 C 172.208 346.522, 185.650 354.369, 189.500 356.899 C 196.112 361.245, 196.548 361.766, 197.367 366.299 C 197.844 368.939, 198.003 371.331, 197.720 371.614 C 196.382 372.951, 153.808 349.094, 135.500 336.747 C 129.416 332.644, 127.214 330.531, 126.306 327.926 C 125.470 325.524, 125.096 313.485, 125.056 287.643 C 125.006 255.025, 125.175 250.853, 126.523 251.371 C 127.361 251.692, 138.724 258.106, 151.773 265.624 C 223.853 307.148, 234.957 313.377, 235.655 312.679 C 235.937 312.396, 236.414 310.334, 236.714 308.096 C 237.197 304.493, 237.514 304.091, 239.482 304.585 C 241.518 305.096, 241.758 304.696, 242.344 299.821 C 242.695 296.895, 242.987 287.041, 242.991 277.925 L 243 261.350 207.750 241.167 C 188.363 230.067, 165.075 216.665, 156 211.386 C 114.135 187.031, 87.264 172, 85.589 172 C 85.331 172, 84.981 173.688, 84.810 175.750 M 238.500 193.640 C 217.693 205.039, 213.049 207.965, 213.578 209.343 C 213.870 210.103, 212.595 211.442, 210.512 212.564 C 208.481 213.657, 207.069 215.122, 207.232 215.966 C 207.584 217.796, 221.199 226.362, 234.297 232.995 L 244.094 237.956 249.097 236.055 C 254.732 233.914, 272.671 224.001, 278 220.084 C 282.026 217.125, 283.056 215.900, 282.406 214.848 C 282.152 214.437, 283.307 213.094, 284.972 211.862 C 286.637 210.631, 288 209.302, 288 208.908 C 288 207.402, 253.790 186.947, 251.414 187.033 C 250.911 187.051, 245.100 190.024, 238.500 193.640" stroke="none" fill="#f9f9f9" fill-rule="evenodd"/></svg>